G04 #@! TF.GenerationSoftware,KiCad,Pcbnew,5.1.5+dfsg1-2build2*
G04 #@! TF.CreationDate,2020-10-24T22:39:24+03:00*
G04 #@! TF.ProjectId,ErgoDOX,4572676f-444f-4582-9e6b-696361645f70,rev?*
G04 #@! TF.SameCoordinates,Original*
G04 #@! TF.FileFunction,OtherDrawing,Comment*
%FSLAX46Y46*%
G04 Gerber Fmt 4.6, Leading zero omitted, Abs format (unit mm)*
G04 Created by KiCad (PCBNEW 5.1.5+dfsg1-2build2) date 2020-10-24 22:39:24*
%MOMM*%
%LPD*%
G04 APERTURE LIST*
%ADD10C,0.025400*%
%ADD11C,0.381000*%
%ADD12C,0.100000*%
G04 APERTURE END LIST*
D10*
X175895000Y-42545000D02*
X175895000Y-42545000D01*
D11*
X191135000Y-33655000D02*
X160655000Y-33655000D01*
X191135000Y-51435000D02*
X191135000Y-33655000D01*
X160655000Y-51435000D02*
X191135000Y-51435000D01*
X160655000Y-33655000D02*
X160655000Y-51435000D01*
X159385000Y-43815000D02*
X197485000Y-43815000D01*
X197485000Y-43815000D02*
X197485000Y-38735000D01*
X197485000Y-38735000D02*
X159385000Y-38735000D01*
X159385000Y-38735000D02*
X159385000Y-43815000D01*
D10*
X178435000Y-41275000D02*
X178435000Y-41275000D01*
D11*
X152241090Y-43610962D02*
X147750962Y-48101090D01*
X147750962Y-48101090D02*
X145954910Y-46305038D01*
X145954910Y-46305038D02*
X150445038Y-41814910D01*
X150445038Y-41814910D02*
X152241090Y-43610962D01*
D10*
X149098000Y-44958000D02*
X149098000Y-44958000D01*
D11*
X147669090Y-43610962D02*
X143178962Y-48101090D01*
X143178962Y-48101090D02*
X141382910Y-46305038D01*
X141382910Y-46305038D02*
X145873038Y-41814910D01*
X145873038Y-41814910D02*
X147669090Y-43610962D01*
D10*
X144526000Y-44958000D02*
X144526000Y-44958000D01*
X125412500Y-46990000D02*
X125412500Y-46990000D01*
D11*
X128587500Y-45720000D02*
X128587500Y-48260000D01*
X122237500Y-45720000D02*
X128587500Y-45720000D01*
X122237500Y-48260000D02*
X122237500Y-45720000D01*
X128587500Y-48260000D02*
X122237500Y-48260000D01*
X128651000Y-44958000D02*
X122301000Y-44958000D01*
X122301000Y-44958000D02*
X122301000Y-42418000D01*
X122301000Y-42418000D02*
X128651000Y-42418000D01*
X128651000Y-42418000D02*
X128651000Y-44958000D01*
D10*
X125476000Y-43688000D02*
X125476000Y-43688000D01*
D11*
X136810910Y-46305038D02*
X141301038Y-41814910D01*
X141301038Y-41814910D02*
X143097090Y-43610962D01*
X143097090Y-43610962D02*
X138606962Y-48101090D01*
X138606962Y-48101090D02*
X136810910Y-46305038D01*
D10*
X139954000Y-44958000D02*
X139954000Y-44958000D01*
D11*
X91109800Y-30480000D02*
X88557100Y-30480000D01*
X88557100Y-30480000D02*
X88557100Y-31775400D01*
X88557100Y-31775400D02*
X84061300Y-31775400D01*
X84061300Y-31775400D02*
X84061300Y-30480000D01*
X84061300Y-30480000D02*
X81508600Y-30480000D01*
X81508600Y-30480000D02*
X81508600Y-42545000D01*
X81508600Y-42545000D02*
X91109800Y-42545000D01*
X91109800Y-42545000D02*
X91109800Y-30480000D01*
D10*
X86309200Y-30480000D02*
X86309200Y-30480000D01*
D12*
X135942914Y-30706190D02*
X135942914Y-30206190D01*
X136133390Y-30206190D01*
X136181009Y-30230000D01*
X136204819Y-30253809D01*
X136228628Y-30301428D01*
X136228628Y-30372857D01*
X136204819Y-30420476D01*
X136181009Y-30444285D01*
X136133390Y-30468095D01*
X135942914Y-30468095D01*
X136728628Y-30658571D02*
X136704819Y-30682380D01*
X136633390Y-30706190D01*
X136585771Y-30706190D01*
X136514342Y-30682380D01*
X136466723Y-30634761D01*
X136442914Y-30587142D01*
X136419104Y-30491904D01*
X136419104Y-30420476D01*
X136442914Y-30325238D01*
X136466723Y-30277619D01*
X136514342Y-30230000D01*
X136585771Y-30206190D01*
X136633390Y-30206190D01*
X136704819Y-30230000D01*
X136728628Y-30253809D01*
X137109580Y-30444285D02*
X137181009Y-30468095D01*
X137204819Y-30491904D01*
X137228628Y-30539523D01*
X137228628Y-30610952D01*
X137204819Y-30658571D01*
X137181009Y-30682380D01*
X137133390Y-30706190D01*
X136942914Y-30706190D01*
X136942914Y-30206190D01*
X137109580Y-30206190D01*
X137157200Y-30230000D01*
X137181009Y-30253809D01*
X137204819Y-30301428D01*
X137204819Y-30349047D01*
X137181009Y-30396666D01*
X137157200Y-30420476D01*
X137109580Y-30444285D01*
X136942914Y-30444285D01*
X137823866Y-30444285D02*
X137990533Y-30444285D01*
X138061961Y-30706190D02*
X137823866Y-30706190D01*
X137823866Y-30206190D01*
X138061961Y-30206190D01*
X138490533Y-30706190D02*
X138490533Y-30206190D01*
X138490533Y-30682380D02*
X138442914Y-30706190D01*
X138347676Y-30706190D01*
X138300057Y-30682380D01*
X138276247Y-30658571D01*
X138252438Y-30610952D01*
X138252438Y-30468095D01*
X138276247Y-30420476D01*
X138300057Y-30396666D01*
X138347676Y-30372857D01*
X138442914Y-30372857D01*
X138490533Y-30396666D01*
X138942914Y-30372857D02*
X138942914Y-30777619D01*
X138919104Y-30825238D01*
X138895295Y-30849047D01*
X138847676Y-30872857D01*
X138776247Y-30872857D01*
X138728628Y-30849047D01*
X138942914Y-30682380D02*
X138895295Y-30706190D01*
X138800057Y-30706190D01*
X138752438Y-30682380D01*
X138728628Y-30658571D01*
X138704819Y-30610952D01*
X138704819Y-30468095D01*
X138728628Y-30420476D01*
X138752438Y-30396666D01*
X138800057Y-30372857D01*
X138895295Y-30372857D01*
X138942914Y-30396666D01*
X139371485Y-30682380D02*
X139323866Y-30706190D01*
X139228628Y-30706190D01*
X139181009Y-30682380D01*
X139157200Y-30634761D01*
X139157200Y-30444285D01*
X139181009Y-30396666D01*
X139228628Y-30372857D01*
X139323866Y-30372857D01*
X139371485Y-30396666D01*
X139395295Y-30444285D01*
X139395295Y-30491904D01*
X139157200Y-30539523D01*
M02*
