M48
; DRILL file {KiCad 5.1.5+dfsg1-2build2} date Sa 24 Okt 2020 22:39:27 EEST
; FORMAT={-:-/ absolute / inch / decimal}
; #@! TF.CreationDate,2020-10-24T22:39:27+03:00
; #@! TF.GenerationSoftware,Kicad,Pcbnew,5.1.5+dfsg1-2build2
; #@! TF.FileFunction,Plated,1,2,PTH
FMAT,2
INCH
T1C0.0157
T2C0.0200
T3C0.0236
T4C0.0315
T5C0.0390
T6C0.0394
T7C0.0429
T8C0.0430
T9C0.0590
T10C0.0670
T11C0.1570
%
G90
G05
T1
X5.3024Y-1.387
X5.3024Y-1.4402
X5.3359Y-1.387
X5.3359Y-1.4402
X5.3694Y-1.387
X5.3694Y-1.4402
X5.4028Y-1.387
X5.4028Y-1.4402
X5.4363Y-1.387
X5.4363Y-1.4402
X5.4698Y-1.387
X5.4698Y-1.4402
X5.5032Y-1.387
X5.5032Y-1.4402
X5.5367Y-1.387
X5.5367Y-1.4402
T2
X2.075Y-5.525
X2.175Y-5.475
X2.35Y-6.75
X2.575Y-1.85
X2.625Y-1.85
X2.675Y-1.85
X2.7Y-5.225
X2.7Y-5.275
X2.75Y-5.225
X2.75Y-5.275
X2.925Y-2.15
X2.95Y-6.5
X2.975Y-2.15
X3.025Y-2.15
X3.325Y-1.375
X3.35Y-2.175
X3.375Y-2.15
X3.4Y-2.125
X3.475Y-1.375
X3.71Y-1.69
X3.8Y-1.655
X3.95Y-4.6
X3.95Y-4.65
X3.95Y-4.7
X4.375Y-6.125
X4.425Y-6.125
X4.475Y-6.125
X4.725Y-4.725
X4.725Y-4.775
X4.725Y-4.825
X4.9Y-1.4
X4.95Y-1.4
X5.0Y-1.4
X5.475Y-2.575
X5.475Y-2.625
X5.475Y-2.675
X5.475Y-4.725
X5.475Y-4.775
X5.475Y-4.825
X5.575Y-1.795
X5.95Y-1.95
X5.95Y-2.0
X6.0Y-1.95
X6.0Y-2.0
X6.2Y-5.5
X6.2Y-5.55
X6.2Y-5.6
X6.675Y-2.3
X6.725Y-2.3
X6.775Y-2.15
X6.825Y-2.15
X7.0Y-2.575
X7.0Y-2.625
X7.0Y-2.675
T4
X3.8838Y-1.4961
X4.1666Y-1.7789
X4.0086Y-1.4461
X4.2914Y-1.7289
T5
X3.45Y-5.0129
X3.45Y-5.1129
X3.75Y-5.0129
X3.75Y-5.1129
X4.74Y-1.72
X5.14Y-1.72
X1.9944Y-5.5683
X2.0366Y-5.6589
X2.2663Y-5.4415
X2.3085Y-5.5321
X3.05Y-3.3504
X3.05Y-3.6504
X3.15Y-3.3504
X3.15Y-3.6504
X6.45Y-5.0879
X6.45Y-5.1879
X6.75Y-5.0879
X6.75Y-5.1879
X3.3188Y-5.8057
X3.4094Y-5.7635
X3.4456Y-6.0776
X3.5362Y-6.0354
X5.7Y-3.4629
X5.7Y-3.5629
X6.0Y-3.4629
X6.0Y-3.5629
X2.7798Y-5.4778
X3.0516Y-5.351
X4.7375Y-1.85
X5.1375Y-1.85
X1.3147Y-5.8852
X1.3569Y-5.9758
X1.5866Y-5.7584
X1.6288Y-5.849
X3.05Y-4.4754
X3.05Y-4.7754
X3.15Y-4.4754
X3.15Y-4.7754
X2.6391Y-6.1227
X2.7297Y-6.0805
X2.7659Y-6.3946
X2.8565Y-6.3524
X7.3875Y-2.838
X7.3875Y-2.938
X7.6875Y-2.838
X7.6875Y-2.938
X5.7Y-5.7129
X5.7Y-5.8129
X6.0Y-5.7129
X6.0Y-5.8129
X5.3686Y-1.9114
X5.6514Y-1.6286
X7.2Y-5.8379
X7.2Y-5.9379
X7.5Y-5.8379
X7.5Y-5.9379
X1.9486Y-7.2447
X1.9908Y-7.3353
X2.2205Y-7.1179
X2.2627Y-7.2085
X3.05Y-4.5754
X3.05Y-4.6754
X4.95Y-4.9
X4.95Y-5.0
X5.25Y-4.9
X5.25Y-5.0
X2.1001Y-5.7948
X2.3719Y-5.668
X2.7Y-2.763
X2.7Y-2.863
X3.0Y-2.763
X3.0Y-2.863
X6.45Y-2.838
X6.45Y-2.938
X6.75Y-2.838
X6.75Y-2.938
X5.7Y-4.2129
X5.7Y-4.3129
X6.0Y-4.2129
X6.0Y-4.3129
X3.1Y-1.375
X3.1Y-1.475
X3.1Y-1.575
X4.2Y-2.7129
X4.2Y-2.8129
X4.5Y-2.7129
X4.5Y-2.8129
X6.45Y-4.3379
X6.45Y-4.4379
X6.75Y-4.3379
X6.75Y-4.4379
X5.5486Y-1.9114
X5.8314Y-1.6286
X4.2Y-5.7129
X4.2Y-5.8129
X4.5Y-5.7129
X4.5Y-5.8129
X5.7Y-2.7129
X5.7Y-2.8129
X6.0Y-2.7129
X6.0Y-2.8129
X5.7286Y-1.9114
X6.0114Y-1.6286
X6.45Y-5.8379
X6.45Y-5.9379
X6.75Y-5.8379
X6.75Y-5.9379
X7.3875Y-4.3379
X7.3875Y-4.4379
X7.6875Y-4.3379
X7.6875Y-4.4379
X3.45Y-2.763
X3.45Y-2.863
X3.75Y-2.763
X3.75Y-2.863
X4.95Y-2.65
X4.95Y-2.75
X5.25Y-2.65
X5.25Y-2.75
X4.2Y-3.4629
X4.2Y-3.5629
X4.5Y-3.4629
X4.5Y-3.5629
X4.95Y-3.4
X4.95Y-3.5
X5.25Y-3.4
X5.25Y-3.5
X6.45Y-3.5879
X6.45Y-3.6879
X6.75Y-3.5879
X6.75Y-3.6879
X3.05Y-3.4504
X3.05Y-3.5504
X4.2Y-4.2129
X4.2Y-4.3129
X4.5Y-4.2129
X4.5Y-4.3129
X4.95Y-4.15
X4.95Y-4.25
X5.25Y-4.15
X5.25Y-4.25
X3.45Y-3.5129
X3.45Y-3.6129
X3.75Y-3.5129
X3.75Y-3.6129
X3.7Y-1.375
X3.7Y-1.475
X3.7Y-1.575
X4.2Y-4.9629
X4.2Y-5.0629
X4.5Y-4.9629
X4.5Y-5.0629
X5.7Y-4.9629
X5.7Y-5.0629
X6.0Y-4.9629
X6.0Y-5.0629
X1.6316Y-6.5649
X1.6738Y-6.6555
X1.9035Y-6.4381
X1.9457Y-6.5287
X4.95Y-5.65
X4.95Y-5.75
X5.25Y-5.65
X5.25Y-5.75
X7.3875Y-5.0879
X7.3875Y-5.1879
X7.6875Y-5.0879
X7.6875Y-5.1879
X3.45Y-4.2629
X3.45Y-4.3629
X3.75Y-4.2629
X3.75Y-4.3629
X2.8Y-2.763
X2.9Y-2.763
X7.3875Y-3.5879
X7.3875Y-3.6879
X7.6875Y-3.5879
X7.6875Y-3.6879
T6
X5.975Y-1.38
X5.3Y-1.625
X5.47Y-1.61
X5.765Y-1.465
T7
X7.475Y-1.375
X7.475Y-1.575
T8
X3.256Y-1.511
X3.335Y-1.633
X3.461Y-1.633
X3.54Y-1.511
X6.375Y-1.475
X6.375Y-1.775
X6.475Y-1.475
X6.475Y-1.775
X6.575Y-1.475
X6.575Y-1.775
X6.675Y-1.475
X6.675Y-1.775
X6.775Y-1.475
X6.775Y-1.775
X6.875Y-1.475
X6.875Y-1.775
X6.975Y-1.475
X6.975Y-1.775
X7.075Y-1.475
X7.075Y-1.775
X7.175Y-1.475
X7.175Y-1.775
X7.275Y-1.475
X7.375Y-1.475
X7.475Y-1.475
X7.575Y-1.475
X7.575Y-1.775
X7.675Y-1.475
X7.675Y-1.775
X6.375Y-1.375
X6.375Y-1.975
X6.475Y-1.375
X6.475Y-1.975
X6.575Y-1.375
X6.575Y-1.975
X6.675Y-1.375
X6.675Y-1.975
X6.775Y-1.375
X6.775Y-1.975
X6.875Y-1.375
X6.875Y-1.975
X6.975Y-1.375
X6.975Y-1.975
X7.075Y-1.375
X7.075Y-1.975
X7.175Y-1.375
X7.175Y-1.975
X7.275Y-1.375
X7.275Y-1.975
X7.375Y-1.375
X7.375Y-1.975
X7.475Y-1.975
T9
X3.2658Y-6.5201
X3.3534Y-6.5896
X3.5347Y-6.5051
X3.5377Y-6.3933
X1.1879Y-5.6133
X1.1909Y-5.5015
X1.3722Y-5.417
X1.4598Y-5.4865
X2.65Y-4.5254
X2.65Y-4.7254
X2.75Y-4.4754
X2.75Y-4.7754
X2.2977Y-6.3371
X2.3672Y-6.2495
X2.3822Y-6.5184
X2.494Y-6.5214
X7.15Y-2.538
X7.15Y-2.738
X7.25Y-2.488
X7.25Y-2.788
X7.3875Y-2.538
X7.4375Y-2.438
X7.6375Y-2.438
X7.6875Y-2.538
X5.7Y-5.4129
X5.75Y-5.3129
X5.95Y-5.3129
X6.0Y-5.4129
X7.2Y-5.5379
X7.25Y-5.4379
X7.45Y-5.4379
X7.5Y-5.5379
X1.8218Y-6.9728
X1.8248Y-6.861
X2.0061Y-6.7765
X2.0937Y-6.846
X4.95Y-4.6
X5.0Y-4.5
X5.2Y-4.5
X5.25Y-4.6
X2.7Y-2.463
X2.75Y-2.363
X2.95Y-2.363
X3.0Y-2.463
X6.45Y-2.538
X6.5Y-2.438
X6.7Y-2.438
X6.75Y-2.538
X2.586Y-6.837
X2.6736Y-6.9065
X2.8549Y-6.822
X2.8579Y-6.7102
X2.1846Y-5.9761
X2.1876Y-5.8643
X2.3689Y-5.7798
X2.4565Y-5.8493
X5.7Y-3.9129
X5.75Y-3.8129
X5.95Y-3.8129
X6.0Y-3.9129
X4.2Y-2.4129
X4.25Y-2.3129
X4.45Y-2.3129
X4.5Y-2.4129
X6.45Y-4.0379
X6.5Y-3.9379
X6.7Y-3.9379
X6.75Y-4.0379
X4.2Y-5.4129
X4.25Y-5.3129
X4.45Y-5.3129
X4.5Y-5.4129
X5.7Y-2.4129
X5.75Y-2.3129
X5.95Y-2.3129
X6.0Y-2.4129
X6.45Y-5.5379
X6.5Y-5.4379
X6.7Y-5.4379
X6.75Y-5.5379
X7.15Y-4.0379
X7.15Y-4.2379
X7.25Y-3.9879
X7.25Y-4.2879
X7.3875Y-4.0379
X7.4375Y-3.9379
X7.6375Y-3.9379
X7.6875Y-4.0379
X3.45Y-2.463
X3.5Y-2.363
X3.7Y-2.363
X3.75Y-2.463
X4.95Y-2.35
X5.0Y-2.25
X5.2Y-2.25
X5.25Y-2.35
X4.2Y-3.1629
X4.25Y-3.0629
X4.45Y-3.0629
X4.5Y-3.1629
X4.95Y-3.1
X5.0Y-3.0
X5.2Y-3.0
X5.25Y-3.1
X6.45Y-3.2879
X6.5Y-3.1879
X6.7Y-3.1879
X6.75Y-3.2879
X4.2Y-3.9129
X4.25Y-3.8129
X4.45Y-3.8129
X4.5Y-3.9129
X4.95Y-3.85
X5.0Y-3.75
X5.2Y-3.75
X5.25Y-3.85
X3.45Y-3.2129
X3.5Y-3.1129
X3.7Y-3.1129
X3.75Y-3.2129
X4.2Y-4.6629
X4.25Y-4.5629
X4.45Y-4.5629
X4.5Y-4.6629
X2.8643Y-5.6591
X2.8673Y-5.5473
X3.0486Y-5.4628
X3.1362Y-5.5323
X5.7Y-4.6629
X5.75Y-4.5629
X5.95Y-4.5629
X6.0Y-4.6629
X1.5048Y-6.293
X1.5078Y-6.1812
X1.6891Y-6.0967
X1.7767Y-6.1662
X4.95Y-5.35
X5.0Y-5.25
X5.2Y-5.25
X5.25Y-5.35
X7.15Y-4.7879
X7.15Y-4.9879
X7.25Y-4.7379
X7.25Y-5.0379
X7.3875Y-4.7879
X7.4375Y-4.6879
X7.6375Y-4.6879
X7.6875Y-4.7879
X3.45Y-3.9629
X3.5Y-3.8629
X3.7Y-3.8629
X3.75Y-3.9629
X7.15Y-3.2879
X7.15Y-3.4879
X7.25Y-3.2379
X7.25Y-3.5379
X7.3875Y-3.2879
X7.4375Y-3.1879
X7.6375Y-3.1879
X7.6875Y-3.2879
X3.45Y-4.7129
X3.5Y-4.6129
X3.7Y-4.6129
X3.75Y-4.7129
X1.8676Y-5.2964
X1.8706Y-5.1846
X2.0519Y-5.1001
X2.1395Y-5.1696
X2.65Y-3.4004
X2.65Y-3.6004
X2.75Y-3.3504
X2.75Y-3.6504
X6.45Y-4.7879
X6.5Y-4.6879
X6.7Y-4.6879
X6.75Y-4.7879
X2.9774Y-6.0201
X3.0469Y-5.9325
X3.0619Y-6.2014
X3.1737Y-6.2044
X5.7Y-3.1629
X5.75Y-3.0629
X5.95Y-3.0629
X6.0Y-3.1629
T10
X7.35Y-3.9379
X7.35Y-4.3379
X7.35Y-4.6879
X7.35Y-5.0879
X7.35Y-3.1879
X7.35Y-3.5879
X7.35Y-2.438
X7.35Y-2.838
T3
G00X5.2493Y-1.2843
M15
G01X5.2493Y-1.2528
M16
G05
G00X5.2493Y-1.4311
M15
G01X5.2493Y-1.372
M16
G05
G00X5.5899Y-1.2843
M15
G01X5.5899Y-1.2528
M16
G05
G00X5.5899Y-1.4311
M15
G01X5.5899Y-1.372
M16
G05
T8
G00X3.221Y-1.314
M15
G01X3.209Y-1.314
M16
G05
G00X3.587Y-1.314
M15
G01X3.575Y-1.314
M16
G05
T11
G00X7.3499Y-4.1379
M15
G01X7.5374Y-4.1379
M16
G05
G00X7.3499Y-4.8879
M15
G01X7.5374Y-4.8879
M16
G05
G00X7.3499Y-3.3879
M15
G01X7.5374Y-3.3879
M16
G05
G00X7.3499Y-2.638
M15
G01X7.5374Y-2.638
M16
G05
T0
M30
